<?xml version="1.0" encoding="UTF-8" standalone="no"?>
<!-- Generator: Adobe Illustrator 16.0.0, SVG Export Plug-In . SVG Version: 6.00 Build 0)  -->

<svg
   xmlns:dc="http://purl.org/dc/elements/1.1/"
   xmlns:cc="http://creativecommons.org/ns#"
   xmlns:rdf="http://www.w3.org/1999/02/22-rdf-syntax-ns#"
   xmlns:svg="http://www.w3.org/2000/svg"
   xmlns="http://www.w3.org/2000/svg"
   xmlns:sodipodi="http://sodipodi.sourceforge.net/DTD/sodipodi-0.dtd"
   xmlns:inkscape="http://www.inkscape.org/namespaces/inkscape"
   version="1.1"
   id="Layer_1"
   x="0px"
   y="0px"
   width="9.9136896cm"
   height="1.9269342cm"
   viewBox="0 0 374.69059 72.829014"
   enable-background="new 0 0 115.333 114"
   xml:space="preserve"
   sodipodi:docname="logo-gray.svg"
   inkscape:version="0.92.4 5da689c313, 2019-01-14"><metadata
   id="metadata4509"><rdf:RDF><cc:Work
       rdf:about=""><dc:format>image/svg+xml</dc:format><dc:type
         rdf:resource="http://purl.org/dc/dcmitype/StillImage" /><dc:title /></cc:Work></rdf:RDF></metadata><defs
   id="defs4507">

</defs><sodipodi:namedview
   pagecolor="#ffffff"
   bordercolor="#666666"
   borderopacity="1"
   objecttolerance="10"
   gridtolerance="10"
   guidetolerance="10"
   inkscape:pageopacity="0"
   inkscape:pageshadow="2"
   inkscape:window-width="960"
   inkscape:window-height="1055"
   id="namedview4505"
   showgrid="false"
   fit-margin-top="0.1"
   fit-margin-left="0.1"
   fit-margin-right="0.1"
   fit-margin-bottom="0.1"
   inkscape:pagecheckerboard="false"
   inkscape:zoom="2.5955187"
   inkscape:cx="211.37276"
   inkscape:cy="53.212864"
   inkscape:window-x="960"
   inkscape:window-y="0"
   inkscape:window-maximized="0"
   inkscape:current-layer="Layer_1"
   inkscape:lockguides="true"
   units="cm"
   inkscape:snap-text-baseline="true" /><g
   id="Layer_2"
   transform="translate(-202.08267,-101.88792)" /><text
   xml:space="preserve"
   style="font-style:normal;font-weight:normal;font-size:40px;line-height:1.25;font-family:sans-serif;letter-spacing:0px;word-spacing:0px;fill:#000000;fill-opacity:1;stroke:none"
   x="858.22382"
   y="164.853"
   id="text5613"><tspan
     sodipodi:role="line"
     id="tspan5611"
     x="858.22382"
     y="200.24362" /><tspan
     sodipodi:role="line"
     x="858.22382"
     y="250.24362"
     id="tspan5615" /></text>



<flowRoot
   xml:space="preserve"
   id="flowRoot7089"
   style="font-style:normal;font-weight:normal;font-size:40px;line-height:1.25;font-family:sans-serif;letter-spacing:0px;word-spacing:0px;fill:#000000;fill-opacity:1;stroke:none"
   transform="translate(-278.2718,-206.63686)"><flowRegion
     id="flowRegion7091"><rect
       id="rect7093"
       width="90.693832"
       height="51.883247"
       x="339.11606"
       y="-79.624748" /></flowRegion><flowPara
     id="flowPara7095" /></flowRoot><g
   id="g1246"
   transform="translate(-220.47136,-146.05283)"><text
   id="text136"
   y="192.64734"
   x="329.22296"
   style="font-style:normal;font-weight:normal;font-size:40px;line-height:1.25;font-family:sans-serif;letter-spacing:0px;word-spacing:0px;fill:#000000;fill-opacity:1;stroke:none"
   xml:space="preserve"><tspan
     style="font-style:normal;font-variant:normal;font-weight:bold;font-stretch:normal;line-height:50px;font-family:System-ui;-inkscape-font-specification:'System-ui Bold';fill:#333333"
     y="192.64734"
     x="329.22296"
     id="tspan134"
     sodipodi:role="line">grok_exporter</tspan></text>

<g
   transform="translate(-1.1581421e-6)"
   id="g1202"><path
     inkscape:connector-curvature="0"
     style="fill:none;fill-opacity:1;fill-rule:evenodd;stroke:#e6522c;stroke-width:3.77952766;stroke-linecap:round;stroke-linejoin:round;stroke-miterlimit:4;stroke-dasharray:none;stroke-opacity:1"
     d="m 269.17676,151.72212 v 9.78254 c 0,0.31059 0.0628,0.60594 0.17599,0.87442 0.11318,0.26847 0.27703,0.51034 0.4797,0.71301 0.20267,0.20267 0.44404,0.36652 0.71251,0.47969 0.26848,0.11318 0.56382,0.17549 0.87442,0.17549 h 9.39586 v -0.2318 l -11.52835,-11.79335 z"
     id="path7109"
     clip-path="none" /><path
     style="fill:none;fill-opacity:1;fill-rule:evenodd;stroke:#e6522c;stroke-width:3.77952766;stroke-linecap:round;stroke-linejoin:round;stroke-miterlimit:4;stroke-dasharray:none;stroke-opacity:1"
     d="m 269.17676,151.72212 h -40.58934 c -1.35546,0 -2.44677,1.09131 -2.44677,2.44677 v 56.5974 c 0,1.35546 1.09131,2.44626 2.44677,2.44626 h 49.78106 c 1.35546,0 2.44676,-1.0908 2.44676,-2.44626 v -47.01902 h -9.39586 c -0.3106,0 -0.60594,-0.0623 -0.87442,-0.17548 -0.26848,-0.11318 -0.50984,-0.27703 -0.71251,-0.4797 -0.20267,-0.20267 -0.36651,-0.44454 -0.47969,-0.71302 -0.11318,-0.26847 -0.176,-0.56382 -0.176,-0.87441 z"
     id="path7328"
     inkscape:connector-curvature="0"
     clip-path="none" /><path
     style="opacity:0.997;fill:#e6522c;fill-opacity:1;stroke-width:0.37011617"
     mask="none"
     d="m 254.48741,157.31662 c -1.35607,0.0818 -2.71183,2.47468 -2.71183,4.53468 0,1.98963 -0.53756,5.23441 -1.82177,7.01132 -0.0873,-3.83731 -1.37966,-6.2912 -2.58765,-6.38965 1.24116,3.17226 -2.19893,7.09641 -2.19893,11.58771 0,2.04577 0.79654,4.04756 2.138,5.62202 -1.39714,-0.25503 -2.35318,-0.47648 -2.35318,-0.47648 -1.8572,-0.41833 -4.47557,-1.00038 -4.46727,-0.95451 0.49243,1.39258 0.99925,2.7597 3.15223,5.37722 0.0671,0.0815 0.13797,0.1599 0.20748,0.24017 h 20.8979 c 2.67937,-2.765 3.37707,-5.63632 3.37668,-5.63593 l -4.79892,0.93752 c 0,0 -1.02048,0.25066 -2.49819,0.52823 1.29961,-1.53769 2.07012,-3.50496 2.07012,-5.59423 0,-3.11611 -0.75855,-4.76328 -2.00918,-6.93795 -0.77519,-1.3479 -1.90816,-4.15202 -0.92091,-6.39273 -2.23789,1.77928 -2.84415,6.93278 -2.97408,10.46484 -0.39173,-1.70059 -0.32707,-4.38227 -0.83452,-5.97572 -1.35292,-4.24219 -2.87475,-5.95175 -1.66598,-7.94651 z"
     id="path5275"
     inkscape:connector-curvature="0"
     sodipodi:nodetypes="csccscccccccccsccccc"
     clip-path="none" /><rect
     style="fill:#e6522c;fill-opacity:1;stroke:#e6522c;stroke-width:1.45954967;stroke-miterlimit:4;stroke-dasharray:none;stroke-opacity:1"
     id="rect3763"
     width="29.847942"
     height="4.8651652"
     x="230.13965"
     y="187.46191"
     ry="2.7660809"
     clip-path="none" /><rect
     style="fill:#e6522c;fill-opacity:1;stroke:#e6522c;stroke-width:1.45954967;stroke-miterlimit:4;stroke-dasharray:none;stroke-opacity:1"
     id="rect3763-3"
     width="14.276437"
     height="4.8651652"
     x="262.64661"
     y="187.46191"
     ry="2.1747599"
     clip-path="none" /><rect
     style="fill:#e6522c;fill-opacity:1;stroke:#e6522c;stroke-width:1.45954967;stroke-miterlimit:4;stroke-dasharray:none;stroke-opacity:1"
     id="rect3763-92"
     width="29.847942"
     height="4.8651652"
     x="230.13965"
     y="202.75195"
     ry="2.7660809"
     clip-path="none" /><rect
     style="fill:#e6522c;fill-opacity:1;stroke:#e6522c;stroke-width:1.45954967;stroke-miterlimit:4;stroke-dasharray:none;stroke-opacity:1"
     id="rect3763-3-2"
     width="14.276437"
     height="4.8651652"
     x="262.64661"
     y="202.75195"
     ry="2.1747599"
     clip-path="none" /><rect
     style="fill:#e6522c;fill-opacity:1;stroke:#e6522c;stroke-width:1.45954967;stroke-miterlimit:4;stroke-dasharray:none;stroke-opacity:1"
     id="rect3763-8"
     width="29.847942"
     height="4.8651652"
     x="247.07512"
     y="195.10693"
     ry="2.7660809"
     clip-path="none" /><rect
     style="fill:#e6522c;fill-opacity:1;stroke:#e6522c;stroke-width:1.45954967;stroke-miterlimit:4;stroke-dasharray:none;stroke-opacity:1"
     id="rect3763-3-9"
     width="14.276437"
     height="4.8651652"
     x="230.13966"
     y="195.10693"
     ry="2.1747599"
     clip-path="none" /></g><text
   id="text136-1"
   y="195.00734"
   x="297.004"
   style="font-style:normal;font-weight:normal;font-size:40px;line-height:1.25;font-family:sans-serif;letter-spacing:0px;word-spacing:0px;fill:#000000;fill-opacity:1;stroke:none"
   xml:space="preserve"><tspan
     style="font-style:normal;font-variant:normal;font-weight:bold;font-stretch:normal;line-height:50px;font-family:System-ui;-inkscape-font-specification:'System-ui Bold';fill:#333333"
     y="195.00734"
     x="297.004"
     id="tspan134-2"
     sodipodi:role="line">&gt;</tspan></text>

</g></svg>